<svg xmlns="http://www.w3.org/2000/svg" xmlns:xlink="http://www.w3.org/1999/xlink" preserveAspectRatio="xMidYMid" width="26" height="24.969" viewBox="0 0 26 24.969">
  <defs>
    <style>
      .cls-1 {
        fill: #fff;
        fill-rule: evenodd;
      }
    </style>
  </defs>
  <path d="M25.751,0.211 C24.909,-0.601 22.050,0.838 21.208,1.649 L17.836,4.899 L2.494,4.899 C2.129,4.899 1.816,5.149 1.748,5.494 C1.680,5.839 1.876,6.182 2.215,6.312 L12.360,10.175 L6.139,16.169 L0.255,16.169 C0.129,16.169 0.020,16.255 -0.004,16.375 C-0.027,16.495 0.041,16.614 0.158,16.658 L5.109,18.544 C5.138,18.664 5.178,18.781 5.229,18.896 L5.013,19.105 C4.704,19.402 4.704,19.883 5.013,20.181 C5.321,20.478 5.821,20.478 6.130,20.181 L6.341,19.977 C6.461,20.028 6.584,20.068 6.710,20.097 L8.619,24.810 C8.665,24.924 8.788,24.989 8.913,24.967 C8.966,24.958 9.014,24.932 9.050,24.897 C9.098,24.851 9.127,24.787 9.127,24.718 L9.127,19.168 L15.447,13.078 L19.418,22.886 C19.551,23.214 19.907,23.404 20.266,23.339 C20.421,23.311 20.558,23.239 20.663,23.138 C20.801,23.004 20.885,22.820 20.886,22.620 L20.886,7.838 L24.259,4.588 C25.101,3.777 26.593,1.023 25.751,0.211 Z" class="cls-1"/>
</svg>
